<svg width="420" height="633" viewBox="0 0 420 633" fill="none" xmlns="http://www.w3.org/2000/svg">
<g id="Guy">
<path id="Arm-Right" d="M321.308 209C301.308 142 269.308 123 269.308 123H249.308V195C249.308 195 296.308 248 296.308 264C296.308 280 321.308 313 339.308 330C357.308 347 406.308 377 406.308 377C406.308 377 376.308 316 369.308 290C362.308 264 341.308 276 321.308 209Z" fill="#CDDB70" stroke="#40EFFF" stroke-width="11"/>
<path id="Body-Main" d="M98.3078 209C118.308 142 150.308 123 150.308 123H290.308L257.308 195C257.308 195 229.308 398 243.308 426C257.308 454 279.308 515 279.308 515L257.308 630C257.308 630 250.308 557 225.308 523C200.308 489 197.308 426 197.308 426C197.308 426 197.308 492 170.308 523C143.308 554 108.308 630 108.308 630L123.308 515C123.308 515 133.308 460 150.308 426C167.308 392 170.308 195 170.308 195C170.308 195 123.308 248 123.308 264C123.308 280 98.3078 313 80.3078 330C62.3078 347 13.3078 377 13.3078 377C13.3078 377 43.3078 316 50.3078 290C57.3078 264 78.3078 276 98.3078 209Z" fill="#F5FFB3" stroke="#40EFFF" stroke-width="11"/>
<g id="Head">
<circle id="Ellipse 1" cx="222.308" cy="55" r="49.5" transform="rotate(-90 222.308 55)" fill="#F5FFB3" stroke="#40EFFF" stroke-width="11"/>
<path id="Vector 3" d="M207.308 54L227.308 54" stroke="#40EFFF" stroke-width="11" stroke-linecap="round"/>
<path id="Vector 4" d="M207.308 26L227.308 26" stroke="#40EFFF" stroke-width="11" stroke-linecap="round"/>
<path id="Vector 5" d="M247.313 49.995L247.313 29.995" stroke="#40EFFF" stroke-width="11" stroke-linecap="round"/>
</g>
</g>
</svg>
